# xmcd CD database file
#
# Track frame offsets:
#	150
#	38105
#	68783
#	98307
#	136116
#	158083
#	185049
#	222449
#
# Disc length: 3838 seconds
#
# Revision: 0
# Processed by: cddbd v1.5.2PL0 Copyright (c) Steve Scherf et al.
# Submitted via: CDex 1.51
#
DISCID=660efc08
DTITLE=Osian Roberts/Steve Fisheick Quintet - Too Much!
DYEAR=1900
DGENRE=Jazz
TTITLE0=It's A Dunn Deal
TTITLE1=Blackout
TTITLE2=Someone To Eatch OverMe
TTITLE3=Too Much!
TTITLE4=Two Little Words
TTITLE5=Waltz For Edith
TTITLE6=Roachville
TTITLE7=Blueslama
EXTD=
EXTT0=
EXTT1=
EXTT2=
EXTT3=
EXTT4=
EXTT5=
EXTT6=
EXTT7=
PLAYORDER=
